<?xml version="1.0" encoding="utf-8"?>
<!-- Svg Vector Icons : http://www.onlinewebfonts.com/icon -->
<!DOCTYPE svg PUBLIC "-//W3C//DTD SVG 1.1//EN" "http://www.w3.org/Graphics/SVG/1.1/DTD/svg11.dtd">
<svg version="1.1" xmlns="http://www.w3.org/2000/svg" xmlns:xlink="http://www.w3.org/1999/xlink" x="0px" y="0px" viewBox="0 0 1000 1000" enable-background="new 0 0 1000 1000" xml:space="preserve">
<metadata> Svg Vector Icons : http://www.onlinewebfonts.com/icon </metadata>
<g><g transform="translate(0.000000,512.000000) scale(0.100000,-0.100000)"><path d="M4550.5,4999.8c-810-78.5-1593.2-358.1-2269.2-811.9c-2257.7-1518.5-2859-4546-1350-6788.4c1081.9-1608.5,2973.9-2428.1,4873.5-2114.1c471.1,78.5,896.2,216.4,1351.9,440.4c965.1,471.1,1765.6,1269.6,2236.6,2236.7c224,455.8,361.9,880.9,440.4,1351.9c314,1899.6-505.6,3791.6-2114.1,4873.5C6791,4812.1,5651.6,5105.1,4550.5,4999.8z M5670.7,4609.1c959.4-147.5,1844.1-593.6,2527.7-1273.4c1129.8-1124.1,1591.3-2769,1206.4-4308.6C9085-2259.7,8227.2-3332.1,7039.9-3933.3C6444.4-4234,5843.1-4387.2,5163.3-4414c-1260-47.9-2485.6,436.6-3379.8,1334.7c-685.5,689.4-1126,1566.4-1277.3,2546.9c-47.9,308.3-47.9,993.8,0,1302.1c101.5,654.9,354.3,1319.4,697,1832.6c471.1,706.6,1053.2,1219.8,1796.2,1585.6c517,254.7,1005.3,392.6,1627.7,457.7C4793.7,4662.8,5477.3,4639.8,5670.7,4609.1z"/><path d="M2951.5,2158l-124.5-124.5l967-967l967-967l-963.2-963.2c-528.5-528.5-961.3-968.9-961.3-980.4c0-9.6,53.6-72.8,118.7-137.9l120.6-120.6l970.9,970.9L5019.7-159l972.8-972.8l970.9-970.9l124.5,124.5l124.5,124.5L6239.5-881L5268.6,89.9l947.9,947.9l947.9,947.9l-118.7,118.7c-65.1,67-128.3,120.6-139.8,120.6c-9.6,0-442.3-423.2-957.5-938.3l-938.3-938.3l-967,967l-967,967L2951.5,2158z"/></g></g>
</svg>